<svg id="Layer_1" data-name="Layer 1" xmlns="http://www.w3.org/2000/svg" xmlns:xlink="http://www.w3.org/1999/xlink" viewBox="0 0 1440.77 489.81"><defs><style>.cls-1{opacity:0.47;}.cls-1,.cls-2{font-size:28.46px;fill:#fcfcfc;font-family:MusticaPro-SemiBold, Mustica Pro;font-weight:600;}.cls-2{opacity:0.32;}.cls-3{fill:#fff;opacity:0.03;}.cls-4{fill:none;stroke:#fff;stroke-miterlimit:10;stroke-width:4px;}.cls-5{fill:url(#linear-gradient);}</style><linearGradient id="linear-gradient" x1="996.44" y1="637.04" x2="996.44" y2="364.43" gradientUnits="userSpaceOnUse"><stop offset="0" stop-color="#fcfcfc" stop-opacity="0"/><stop offset="0.17" stop-color="#fcfcfc" stop-opacity="0.02"/><stop offset="0.35" stop-color="#fcfcfc" stop-opacity="0.06"/><stop offset="0.53" stop-color="#fdfdfd" stop-opacity="0.15"/><stop offset="0.71" stop-color="#fefefe" stop-opacity="0.26"/><stop offset="0.9" stop-color="#fefefe" stop-opacity="0.4"/><stop offset="1" stop-color="#fff" stop-opacity="0.5"/></linearGradient></defs><text class="cls-1" transform="translate(27 411.03) scale(0.99 1)">0</text><text class="cls-2" transform="translate(0 276.03) scale(0.99 1)">100</text><text class="cls-2" transform="translate(224.96 483.03) scale(0.99 1)">Jan 2022</text><text class="cls-2" transform="translate(489.92 483.03) scale(0.99 1)">Feb 2022</text><text class="cls-2" transform="translate(764.44 483.03) scale(0.99 1)">Mar 2022</text><text class="cls-2" transform="translate(1029.4 483.03) scale(0.99 1)">Apr 2022</text><text class="cls-2" transform="translate(1314.52 483.03) scale(0.99 1)">May 2022</text><text class="cls-2" transform="translate(0 148.55) scale(0.99 1)">200</text><text class="cls-2" transform="translate(0 24.47) scale(0.99 1)">300</text><rect class="cls-3" x="116.56" y="9.84" width="1301.76" height="3.4"/><rect class="cls-3" x="116.56" y="135.8" width="1301.76" height="3.4"/><rect class="cls-3" x="116.56" y="265.76" width="1301.76" height="3.4"/><rect class="cls-3" x="116.56" y="397.72" width="1301.76" height="3.4"/><path class="cls-4" d="M346.28,482.17c144.5-42.36,249.08-32,318.24-14.4,70.3,17.89,103.1,43,174.24,37.44,82.49-6.47,97.42-44.9,195.84-63.36,90.9-17.05,93.22,12.91,188.41,0,115-15.59,136.36-62.67,239.27-74.88,49.67-5.89,111.3-2.83,184.32,23" transform="translate(-233.6 -243.52)"/><path class="cls-5" d="M350.16,637l-3.88-154.87c144.5-42.36,249.08-32,318.24-14.4,70.3,17.89,103.1,43,174.24,37.44,82.49-6.47,97.42-44.9,195.84-63.36,90.9-17.05,93.22,12.91,188.41,0,115-15.59,136.36-62.67,239.27-74.88,49.67-5.89,111.3-2.83,184.32,23V629.84Z" transform="translate(-233.6 -243.52)"/></svg>